<?xml version="1.0" standalone="no"?><!DOCTYPE svg PUBLIC "-//W3C//DTD SVG 1.1//EN" "http://www.w3.org/Graphics/SVG/1.1/DTD/svg11.dtd"><svg t="1501493466330" class="icon" style="" viewBox="0 0 1025 1024" version="1.1" xmlns="http://www.w3.org/2000/svg" p-id="1852" xmlns:xlink="http://www.w3.org/1999/xlink" width="200.1953125" height="200"><defs><style type="text/css"></style></defs><path d="M149.959245 874.026533C349.904916 1073.972203 674.080862 1073.972203 874.026533 874.026533 1073.972203 674.080862 1073.972203 349.904916 874.026533 149.959245 674.080862-49.986425 349.904916-49.986425 149.959245 149.959245-49.986425 349.904916-49.986425 674.080862 149.959245 874.026533ZM570.336904 456.502021 742.124281 456.0033C742.124281 456.0033 796.89973 456.502021 796.89973 514.879705 796.89973 573.257389 739.48039 570.503922 739.48039 570.503922L571.121632 570.344225 569.614687 741.588391C569.614687 741.588391 570.336904 798.820198 511.150236 798.820238 451.963527 798.820238 455.661379 742.057104 455.661379 742.057104L455.390578 570.948419 286.174162 570.406696C286.174162 570.406696 225.441731 570.406696 225.588194 514.879705 225.734697 459.352674 285.594305 456.23122 285.594305 456.23122L456.001651 456.502062 455.616246 286.035664C455.616246 286.035664 451.963527 229.665216 511.150236 229.501738 570.336904 229.338219 570.336904 286.677993 570.336904 286.677993L570.336904 456.502021Z" p-id="1853" fill="#2c2c2c"></path></svg>